# xmcd CD database file
#
# Track frame offsets:
#	150
#	65696
#	109385
#	157279
#	204133
#
# Disc length: 3497 seconds
#
# Revision: 0
# Processed by: cddbd v1.5.1PL0 Copyright (c) Steve Scherf et al.
# Submitted via: CDex 1.51
#
DISCID=460da705
DTITLE=Dick De Graaf Soundroots Quartet and Daniel Pezotti - Schubert Impressions for Jazz Quintet
DYEAR=2003
DGENRE=Jazz
TTITLE0=Shaking Hands
TTITLE1=Stretch
TTITLE2=Fade In Fade Out
TTITLE3=Dutch Skies
TTITLE4=To Elvin With Love
EXTD=YEAR: 2003
EXTT0=
EXTT1=
EXTT2=
EXTT3=
EXTT4=
PLAYORDER=
